<svg id="Calque_1" data-name="Calque 1" xmlns="http://www.w3.org/2000/svg" viewBox="0 0 1366 231.4"><defs><style>.cls-1,.cls-2,.cls-3,.cls-4{fill:#fff;}.cls-1{fill-rule:evenodd;}.cls-2{opacity:0.75;}.cls-3{opacity:0.5;}.cls-4{opacity:0.25;}</style></defs><path class="cls-1" d="M1366,132.52V231.4H0V190c19.53-5.72,37.42-11.07,54.14-16,101.43,38.16,209.42,11.46,325-11.69,18.67,4,38.73,8.77,60.43,14.22,186.37,46.76,294.34,29.1,370.13,13,37.92-2.42,66.7-9.83,89.28-18,68.58-19.26,131.11-74,271.07-55,64.59,8.74,109.65,14.76,145.54,9.69C1336.87,133.94,1352.49,136.44,1366,132.52Z"/><path class="cls-2" d="M379.09,162.36c-115.53,23.15-223.52,49.85-324.95,11.69,34.26-10,63.67-18.11,92.41-23.58,26.61.88,50.86-2.6,74.73-7.72C264.3,142.18,313,148,379.09,162.36Z"/><path class="cls-2" d="M1366,107.83v24.69c-13.51,3.92-29.13,1.42-50.46-6.35C1334.4,123.52,1350.72,117.81,1366,107.83Z"/><path class="cls-3" d="M54.14,174.05C37.42,178.94,19.53,184.29,0,190V145.76a218,218,0,0,0,35.21,20.37Q44.63,170.5,54.14,174.05Z"/><path class="cls-4" d="M146.55,150.47C117.81,155.94,88.4,164,54.14,174.05q-9.51-3.57-18.93-7.92A218,218,0,0,1,0,145.76V99.54a182.87,182.87,0,0,0,51.08,30C87.15,143.68,118.18,149.55,146.55,150.47Z"/><path class="cls-4" d="M529.22,140.11c-51.43,3.37-101.45,12.5-150.13,22.25C313,148,264.3,142.18,221.28,142.75c81.15-17.41,157.81-53.82,306.86-3Z"/><path class="cls-3" d="M809.65,189.55c-75.79,16.13-183.76,33.79-370.13-13-21.7-5.45-41.76-10.17-60.43-14.22,48.68-9.75,98.7-18.88,150.13-22.25C657.35,183.68,746.26,193.6,809.65,189.55Z"/><path class="cls-3" d="M1315.54,126.17c-35.89,5.07-81-1-145.54-9.69-140-19-202.49,35.78-271.07,55,10.05-3.65,18.87-7.46,26.72-11.05,48.22-22.05,92.6-79.41,192.1-112.27,22.71,2.59,50.25,10.64,84.65,26.64C1253.61,98.66,1289,116.5,1315.54,126.17Z"/><path class="cls-4" d="M1366,40.92v66.91c-15.28,10-31.6,15.69-50.46,18.34-26.54-9.67-61.93-27.51-113.14-51.33-34.4-16-61.94-24.05-84.65-26.64a430.51,430.51,0,0,1,45.8-12.33C1251.8,17.11,1313.11,50.89,1366,40.92Z"/></svg>