<?xml version="1.0" standalone="no"?>
<!DOCTYPE svg PUBLIC "-//W3C//DTD SVG 20010904//EN"
 "http://www.w3.org/TR/2001/REC-SVG-20010904/DTD/svg10.dtd">
<svg version="1.0" xmlns="http://www.w3.org/2000/svg"
 width="66.000000pt" height="10.000000pt" viewBox="0 0 66.000000 10.000000"
 preserveAspectRatio="xMidYMid meet">
<metadata>
Created by potrace 1.15, written by Peter Selinger 2001-2017
</metadata>
<g transform="translate(0.000000,10.000000) scale(0.100000,-0.100000)"
fill="#000000" stroke="none">
<path d="M22 70 c-12 -16 -22 -37 -22 -46 0 -16 1 -16 18 0 18 15 20 15 37 -4
23 -26 47 -25 63 1 l13 21 23 -21 c28 -26 52 -27 68 -2 12 19 12 19 36 0 30
-23 40 -24 63 -3 16 15 20 14 48 -2 29 -17 31 -17 51 1 17 16 24 17 38 7 33
-24 43 -24 66 -3 l23 21 18 -20 c10 -11 24 -20 32 -20 21 0 62 52 63 80 l0 24
-16 -22 -15 -22 -26 20 c-33 25 -49 25 -63 0 l-11 -21 -26 21 c-32 25 -49 25
-65 1 -12 -19 -12 -19 -39 0 -34 24 -42 24 -64 -1 l-18 -20 -22 20 c-12 11
-26 20 -32 20 -5 0 -18 -9 -28 -20 l-18 -20 -22 20 c-27 25 -37 25 -60 0 l-18
-20 -22 20 c-29 27 -47 25 -73 -10z"/>
</g>
</svg>
