<svg height="31" viewBox="0 0 108 31" width="108" xmlns="http://www.w3.org/2000/svg" xmlns:xlink="http://www.w3.org/1999/xlink"><linearGradient id="a" x1="91.176426%" x2="34.117762%" y1="50.000244%" y2="50.000244%"><stop offset="0" stop-color="#58331b"/><stop offset="1" stop-color="#cd9832"/></linearGradient><linearGradient id="b"><stop offset="0" stop-color="#165b33"/><stop offset="1" stop-color="#1a934e"/></linearGradient><linearGradient id="c" x1="50.00007%" x2="50.00007%" xlink:href="#b" y1="0%" y2="100%"/><linearGradient id="d" x1="51.936102%" x2="49.448738%" xlink:href="#b" y1="-1.170067%" y2="99.696558%"/><mask id="e" fill="#fff"><path d="m23.2632771.66674413c-1.7401885-.40348826-4.6008-.66674413-7.8347057-.66674413s-6.09451711.26325587-7.83472111.66674413c-3.46970829.73146437-6.20208515 3.47649112-6.93017872 6.96226287-.40162886 1.7482605-.66367157 4.6221155-.66367157 7.870993s.26204271 6.1227325.66367157 7.8709775c.72809357 3.485795 3.46047043 6.230845 6.93017872 6.96229 1.740204.403465 4.60081541.6667325 7.83472111.6667325s6.0945172-.2632675 7.8347057-.6667325c3.4697315-.731445 6.2021315-3.476495 6.9302058-6.96229.4016057-1.748245.66366-4.6221.66366-7.8709775s-.2620543-6.1227325-.66366-7.870993c-.7280743-3.48577175-3.4604743-6.2307985-6.9302058-6.96226287z" fill="#fff" fill-rule="evenodd"/></mask><g fill="none" fill-rule="evenodd"><path d="m23.2632771.66674413c-1.7401885-.40348826-4.6008-.66674413-7.8347057-.66674413s-6.09451711.26325587-7.83472111.66674413c-3.46970829.73146437-6.20208515 3.47649112-6.93017872 6.96226287-.40162886 1.7482605-.66367157 4.6221155-.66367157 7.870993s.26204271 6.1227325.66367157 7.8709775c.72809357 3.485795 3.46047043 6.230845 6.93017872 6.96229 1.740204.403465 4.60081541.6667325 7.83472111.6667325s6.0945172-.2632675 7.8347057-.6667325c3.4697315-.731445 6.2021315-3.476495 6.9302058-6.96229.4016057-1.748245.66366-4.6221.66366-7.8709775s-.2620543-6.1227325-.66366-7.870993c-.7280743-3.48577175-3.4604743-6.2307985-6.9302058-6.96226287z" fill="#377432"/><g mask="url(#e)"><g transform="translate(-12.342857 -9.3)"><path d="m17.5833334 49.788015c.4144963-.8249875 1.5543592-6.98957 2.0724815-9.9687475l-.5181223-4.125015 17.6160188 1.375005c.8204143 2.8646325 2.4610886 9.41873 2.4610886 12.7187575-13.6005943 2.9791775-15.2845457 1.2603825-21.6314666 0z" fill="url(#a)" fill-rule="evenodd"/><path d="m.58721143 39.131145 6.95299371-7.53951 1.21401257-1.4414225 36.08923369-4.2132875 3.7523829 5.65471c1.6186886 1.4043775 5.2754143 4.87847 6.9529628 7.53951-4.2379971 1.064385-9.7120542-.4435325-11.9193428-1.33052l1.8761914 8.6483025-11.6986371-6.20899-5.4078686 8.4264975c-1.6922829-2.2914425-5.4078686-7.184715-6.7322571-8.4264975-.70632 1.5965775-7.3576466 4.804535-10.5950083 6.20899.4046683-1.51528 1.2140084-5.100275 1.2140084-7.3177825-4.14971071 1.5965775-9.52818014.66526-11.69867157 0z" fill="url(#c)" fill-rule="evenodd"/><path d="m5.622804 32.4987725c7.5928551 3.6960525 27.3107931 8.5873875 45.4396731-1.4155375" fill="none" opacity=".5" stroke="#000" stroke-width=".5"/><path d="m12.3856541 33.2671578.0107234.0000134c.4830126.0006044.8744216.3920115.8750283.8750241l.0022107 1.7600499c.0006078.4838702-.3911538.8766172-.8750241.877225-.0007322.0000009-.0014644.0000009-.0021966 0l-.0107233-.0000134c-.4830126-.0006044-.8744217-.3920115-.8750284-.8750241l-.0022107-1.7600498c-.0006078-.4838703.3911538-.8766173.8750241-.8772251.0007322-.0000009.0014644-.0000009.0021966 0z" fill="#f8b229" fill-rule="evenodd" transform="matrix(.28297596 .959127 -.959127 .28297596 42.476469 13.227991)"/><path d="m34.3820506 34.4920253.0042971-.0000038c.5825369-.0005198 1.0551977.4712984 1.0557175 1.0538353.0000005.000626.0000005.0012521 0 .0018781l-.0018978 2.1362071c-.0005169.5818036-.4720318 1.0533203-1.0538353 1.0538394l-.0042972.0000038c-.5825369.0005197-1.0551977-.4712984-1.0557175-1.0538353-.0000005-.0006261-.0000005-.0012521 0-.0018782l.0018978-2.1362071c.0005169-.5818036.4720318-1.0533202 1.0538354-1.0538393z" fill="#f8b229" fill-rule="evenodd" transform="matrix(.98048655 -.1965862 .1965862 .98048655 -6.52703 7.473941)"/><path d="m47.227544 31.0165323.0068305-.0000127c.5820059-.0010766 1.0546878.4698597 1.0557644 1.0518656.0000024.0012978.0000024.0025957 0 .0038935l-.0039367 2.1340063c-.0010718.5810149-.4718089 1.0517544-1.0528238 1.0528292l-.0068304.0000126c-.582006.0010767-1.0546878-.4698596-1.0557645-1.0518655-.0000024-.0012979-.0000024-.0025957 0-.0038935l.0039367-2.1340063c.0010718-.5810149.471809-1.0517544 1.0528238-1.0528292z" fill="#fdedb0" fill-rule="evenodd" transform="matrix(.8944713 -.44712537 .44712537 .8944713 -9.832592 24.614929)"/><path d="m2.35308857 31.59923 9.51221263-11.02422 1.5484994-2.3320525 25.660908-.954025 5.5302943 4.4521425 8.0743114 9.11617-13.6046057-2.4380725v8.162145l-11.9456486-5.7240725-12.1667554 5.7240725.5530371-7.42016z" fill="url(#c)" fill-rule="evenodd"/><path d="m10.2221846 22.2966725c5.7164554 2.7826375 20.5615954 6.465205 34.2103268-1.0657025" fill="none" opacity=".5" stroke="#000" stroke-width=".5"/><path d="m5.88478114 23.57023c2.465802-3.53183 7.61217176-10.7516525 8.47122686-11.376225l5.011146-3.68054475 22.3115117 3.01135555 8.3519486 12.0454142-15.7493314-4.795855-5.7270086 8.58793-8.5905514-7.13806z" fill="url(#c)" fill-rule="evenodd"/><path d="m12.1669506 8.44250125c3.8895483 1.95378275 15.1162408 10.83461625 34.0335208 6.74942075" fill="none" opacity=".5" stroke="#000" stroke-width=".5"/><g fill-rule="evenodd"><path d="m11.4436723 11.122521 12.189582-10.4888035c2.1100886-.1713525 6.5962543-.499875 7.6599771-.4433 1.3297115.07068 10.1941972 8.97251445 11.8528457 11.9997357-2.9173114.1541863-8.21286-.5657732-10.49598-.9450272l-4.6838828 3.7726225-5.8324629-4.3320252z" fill="url(#d)"/><rect fill="#ff7a7a" height="3.197092" rx=".794116" width="1.591179" x="19.769176" y="23.717713"/><path d="m27.1248099 35.120416.0128076-.0000148c.5722115-.0006594 1.0366151.462675 1.0372745 1.0348865.0000009.0007976.0000009.0015952 0 .0023928l-.002408 2.0811348c-.000661.5712773-.4636092 1.0342234-1.0348865 1.0348818l-.0128076.0000147c-.5722115.0006595-1.0366151-.462675-1.0372745-1.0348865-.0000009-.0007976-.0000009-.0015952 0-.0023928l.002408-2.0811348c.000661-.5712773.4636092-1.0342234 1.0348865-1.0348817z" fill="#2fd63e" transform="matrix(.25881905 -.96592583 .96592583 .25881905 -15.820466 53.776481)"/><path d="m15.313623 22.8750727.0080749.0000101c.3636476.000455.6583294.2951353.6587862.658783l.0016644 1.3250991c.0004575.3642933-.2944897.6599824-.658783.66044-.0005513.0000007-.0011026.0000007-.0016539 0l-.0080748-.0000101c-.3636477-.000455-.6583294-.2951353-.6587862-.658783l-.0016644-1.3250991c-.0004576-.3642933.2944896-.6599824.658783-.66044.0005513-.0000007.0011025-.0000007.0016538 0z" fill="#f8b229" transform="matrix(.28297596 .959127 -.959127 .28297596 34.191361 2.658414)"/><path d="m15.6819523 8.83106158.0083976.00001051c.3782532.00047327.6847705.30698911.6852456.68524232l.0017313 1.37832479c.000476.3789248-.3063175.6864899-.6852423.6869659-.0005734.0000007-.0011468.0000007-.0017203 0l-.0083975-.0000105c-.3782532-.0004733-.6847706-.3069891-.6852457-.6852423l-.0017312-1.37832482c-.000476-.37892483.3063174-.68648994.6852423-.68696589.0005734-.00000072.0011468-.00000072.0017202-.00000001z" fill="#fdedb0" transform="matrix(.28297596 .959127 -.959127 .28297596 21.036522 -7.726832)"/><path d="m20.0037685 11.0404234.0055653.0000111c.4425314.0008762.8010553.3594017.8019294.8019332l.00321 1.6250919c.0008757.4433369-.3578099.8034424-.8011468.8043181-.0010584.0000021-.0021167.0000021-.0031751 0l-.0055653-.0000111c-.4425314-.0008762-.8010552-.3594017-.8019294-.8019332l-.00321-1.6250919c-.0008757-.4433369.35781-.8034424.8011469-.8043181.0010583-.0000021.0021167-.0000021.003175 0z" fill="#afeeee" transform="matrix(.87076192 .49170488 -.49170488 .87076192 8.808728 -8.20187)"/><path d="m24.7764015 13.1527299.0045239-.0000091c.3561124-.000713.6453766.2873951.6460896.6435075.0000018.0008597.0000018.0017195 0 .0025792l-.0026076 1.305285c-.0007101.3554565-.2886869.6434346-.6441434.6441463l-.0045239.0000091c-.3561124.0007131-.6453766-.287395-.6460896-.6435074-.0000018-.0008598-.0000018-.0017195 0-.0025793l.0026076-1.3052849c.0007101-.3554565.2886869-.6434347.6441434-.6441464z" fill="#f8b229" transform="matrix(.8660254 -.5 .5 .8660254 -3.905575 14.325164)"/><path d="m30.7122376 14.2798332.0031214.0000022c.4381409.0003097.7932466.3554165.7935549.7935574l.0011318 1.6085062c.0003087.4385783-.3549791.7943664-.7935574.794675-.0003733.0000003-.0007467.0000003-.00112 0l-.0031214-.0000022c-.4381409-.0003097-.7932466-.3554165-.7935549-.7935574l-.0011318-1.6085062c-.0003086-.4385783.3549791-.7943664.7935574-.794675.0003733-.0000003.0007467-.0000003.00112 0z" fill="#ff7a7a" transform="matrix(.98798788 .1545314 -.1545314 .98798788 2.822619 -4.555516)"/><path d="m41.0126196 32.7936337.0072395.0000145c.568833.001139 1.029679.4619872 1.0308154 1.0308202l.004173 2.0888203c.0011384.5698827-.4599198 1.0327868-1.0298025 1.0339253-.0013758.0000027-.0027517.0000027-.0041276 0l-.0072394-.0000145c-.5688331-.001139-1.0296791-.4619872-1.0308154-1.0308202l-.004173-2.0888203c-.0011385-.5698827.4599198-1.0327868 1.0298024-1.0339253.0013759-.0000027.0027518-.0000027.0041276 0z" fill="#ff7a7a" transform="matrix(.8660254 .5 -.5 .8660254 22.930417 -15.836634)"/><path d="m37.6313341 14.7382192.0093677.0000108c.4178417.0004815.7564498.339088.7569332.7569297l.0017613 1.5221767c.0004842.418525-.3384048.7581991-.7569298.7586833-.0005833.0000007-.0011667.0000007-.0017501 0l-.0093677-.0000108c-.4178417-.0004815-.7564498-.339088-.7569332-.7569297l-.0017613-1.5221767c-.0004842-.418525.3384048-.7581991.7569298-.7586833.0005833-.0000007.0011667-.0000007.0017501 0z" fill="#2fd63e" transform="matrix(-.25881905 -.96592583 .96592583 -.25881905 31.673774 56.81838)"/><path d="m43.2641447 14.2814303.0055659-.0000111c.4381445-.0008773.794042.3535977.7949193.7917422.0000021.0010578.0000021.0021156 0 .0031734l-.0032083 1.6059536c-.0008737.4373375-.3551872.7916527-.7925247.7925284l-.0055659.0000111c-.4381445.0008773-.794042-.3535977-.7949193-.7917422-.0000021-.0010578-.0000021-.0021156 0-.0031734l.0032083-1.6059536c.0008737-.4373375.3551872-.7916526.7925247-.7925284z" fill="#fdedb0" transform="matrix(-.8660254 .5 -.5 -.8660254 88.675489 7.995722)"/><path d="m26.5179236 24.3373731.0089062-.0000103c.397902-.0004585.7208371.3217331.7212957.7196351.0000006.0005547.0000006.0011093 0 .0016639l-.0016745 1.4471788c-.0004596.3972524-.3223827.719174-.7196351.7196318l-.0089061.0000102c-.3979021.0004586-.7208372-.321733-.7212958-.7196351-.0000006-.0005546-.0000006-.0011093.0000001-.0016639l.0016744-1.4471787c.0004596-.3972524.3223827-.719174.7196351-.7196318z" fill="#fdedb0" transform="matrix(.25881905 -.96592583 .96592583 .25881905 -5.245067 44.727342)"/><path d="m31.8741915 23.7972107.0032295-.0000029c.4385782-.0003913.7944333.3548294.7948246.7934076.0000004.0004713.0000004.0009427 0 .001414l-.0014288 1.6082879c-.0003892.4380261-.3553815.7930198-.7934076.7934106l-.0032295.0000029c-.4385782.0003913-.7944332-.3548294-.7948245-.7934076-.0000005-.0004713-.0000005-.0009427-.0000001-.001414l.0014289-1.6082879c.0003891-.4380261.3553814-.7930198.7934075-.7934106z" fill="#fdedb0" transform="matrix(.98048655 -.1965862 .1965862 .98048655 -4.370392 6.761896)"/><path d="m41.5451326 21.1806845.0051396-.0000095c.4381769-.0008106.7940465.3537449.7948571.7919217.0000018.0009771.0000018.0019542 0 .0029313l-.0029639 1.6066339c-.0008069.4374323-.3552137.7918409-.792646.7926501l-.0051396.0000095c-.4381769.0008106-.7940465-.3537448-.794857-.7919217-.0000019-.0009771-.0000019-.0019542-.0000001-.0029313l.0029639-1.6066339c.0008069-.4374323.3552137-.7918409.792646-.7926501z" fill="#f8b229" transform="matrix(.8944713 -.44712537 .44712537 .8944713 -5.800074 20.98057)"/><path d="m36.8823525 22.9848231.0061696.0000142c.3865328.0008927.6996575.3140174.7005502.7005503l.0032711 1.416381c.0008952.3876246-.3126109.7025821-.7002354.7034773-.0010806.0000025-.0021613.0000025-.0032419 0l-.0061696-.0000143c-.3865328-.0008926-.6996576-.3140174-.7005502-.7005502l-.0032711-1.416381c-.0008952-.3876246.3126109-.7025821.7002354-.7034773.0010806-.0000025.0021612-.0000025.0032419 0z" fill="#afeeee" transform="matrix(.70710678 .70710678 -.70710678 .70710678 28.053439 -18.936924)"/><rect fill="#afeeee" height="4.305559" rx="1.069445" width="2.142859" x="17.999936" y="34.27236"/><path d="m31.4880171 33.1026525c-.2928342-.700135-.9142971-1.2273675-1.6704514-1.386785-.4524428-.1048575-1.1961771-.17329-2.0370343-.17329-.84078 0-1.5845143.0684325-2.0369571.17329-.7507543.1583325-1.3687457.6791325-1.6641257 1.3718275-.0967372.226765-.3080315.3899025-.5526515.3677375-.0822342-.00744-.1613057-.0148025-.2212457-.02077-1.2099857-.121055-2.1610028-.2899275-2.7135-.4869325-.0009257-.000465-.0020057-.0010075-.0033171-.0014725-.3707486-.139965-.634608-.4994875-.634608-.9209325 0-.0104625.000162-.0208475.000486-.03131.0008486-.016895.001836-.034255.00297-.051925.0003317-.0039525.0006788-.007905.0010568-.01178.0010492-.0110825.0017126-.0217.0019749-.0320075.0941914-1.26511.8589317-4.2269275 2.001186-7.6074775 1.3058743-3.8646925 2.6714571-6.993445 3.2872886-7.6036877.09828-.1028193.21168-.1889373.3370371-.255347.0489857-.0280705.1109314-.0549165.1845257-.0802513.0019286-.0006665.0038572-.0013252.0057857-.001984.4046143-.137454 1.1502772-.2295162 2.0034-.2295162.8545886 0 1.6002515.0920622 2.0040943.229276.0027.000899.0045515.0015577.00648.0022242.0736715.0253348.1356172.0521808.1846029.0802513.1253571.0664097.2387571.1525277.3361114.2542387.6167572.611351 1.98234 3.7401035 3.2882143 7.604796 1.1422543 3.38055 1.9069714 6.3423675 2.0011629 7.6074775.0003085.0103075.0009257.020925.0020057.0320075.0003857.003875.0006943.0078275.0010028.01178.0011572.01767.00216.03503.0030086.051925.0003086.0104625.0004629.0208475.0004629.03131 0 .421445-.2638286.7809675-.6345772.9209325-.0013114.000465-.0023914.0010075-.0033171.0014725-.5520343.19685-1.5018943.3655675-2.71026.486545-.0646457.00651-.1515086.01457-.2406086.02263-.2352086.021235-.4387114-.1355475-.5302029-.3542525z" fill="#fff"/></g></g></g><path d="m49.14648 10.3275725h2.9403771v12.927h-2.9403771v-2.2714475c-.9188486 1.6111475-2.4939514 2.5355675-4.5417086 2.5355675-3.4128771 0-6.1431171-3.0109525-6.1431171-6.73506s2.73024-6.7086325 6.1431171-6.7086325c2.0477572 0 3.62286.92442 4.5417086 2.5355675zm44.0212629 0h2.9399142v12.927h-2.9399142v-2.2714475c-.9195429 1.6111475-2.4940286 2.5355675-4.5421715 2.5355675-3.4128 0-6.1428857-3.0109525-6.1428857-6.73506s2.7300857-6.7086325 6.1428857-6.7086325c2.0481429 0 3.6226286.92442 4.5421715 2.5355675zm-47.86722 10.3818225c2.2315114 0 3.9116828-1.69043 3.9116828-3.93545 0-2.2185925-1.6801714-3.908945-3.9116828-3.908945-2.1789772 0-3.9116829 1.7432075-3.9116829 3.908945 0 2.1922425 1.7327057 3.93545 3.9116829 3.93545zm43.8665914 0c2.2317428 0 3.9119143-1.69043 3.9119143-3.93545 0-2.2185925-1.6801715-3.908945-3.9119143-3.908945-2.1785143 0-3.9111429 1.7432075-3.9111429 3.908945 0 2.1922425 1.7326286 3.93545 3.9111429 3.93545zm-32.6779457-16.834395c1.02384 0 1.8901543.871596 1.8901543 1.875252 0 1.05648-.8663143 1.901664-1.8901543 1.901664s-1.8639257-.845184-1.8639257-1.901664c0-1.003656.8400857-1.875252 1.8639257-1.875252zm-1.4438829 6.417h2.9139943v12.927h-2.9139943zm12.0676114-.2525725c.5613686 0 1.1019086.083855 1.4916343.2328875.2294229.08773.4317686.1846825.5888315.2665225l-1.18584 2.4975925c-.37368-.113925-.7785258-.170965-1.1833715-.170965-1.4176543 0-2.9928343 1.18854-2.9928343 3.4599875v6.8935475h-2.9140714v-12.927h2.9140714v1.8603875c.5775686-1.241395 2.0214515-2.11296 3.28158-2.11296zm14.6353886 9.9045c-.9712286 2.1393875-3.2292 3.5391925-5.9069057 3.5391925-3.8066143 0-6.7206857-2.8788925-6.7206857-6.7086325s2.8877657-6.73506 6.6944571-6.73506c2.4941057 0 4.5939343 1.2413175 5.5397057 3.1430125l-2.4678 1.399805c-.5253428-1.0300525-1.6801714-1.71678-3.0719057-1.71678-2.2052057 0-3.8066914 1.69043-3.8066914 3.9090225 0 2.192165 1.6277143 3.8825175 3.83292 3.8825175 1.4966486 0 2.7301629-.7130775 3.3079629-1.9016175zm20.2314853-16.0689275v19.344h-2.9144567v-19.344zm5.872115 0v19.344h-2.914457v-19.344z" fill="#101820"/></g></svg>